<?xml version="1.0" ?><!DOCTYPE svg  PUBLIC '-//W3C//DTD SVG 1.1//EN'  'http://www.w3.org/Graphics/SVG/1.1/DTD/svg11.dtd'><svg enable-background="new 0 0 300 300" height="300px" id="Layer_1" version="1.1" viewBox="0 0 300 300" width="300px" xml:space="preserve" xmlns="http://www.w3.org/2000/svg" xmlns:xlink="http://www.w3.org/1999/xlink"><path d="M193.603,5.167h-91.334c-26,1-28.333,27.333-28.333,27.333l0.667,235.333c2.834,24,24.333,27,24.333,27h94  c27-2,29-26.666,29-26.666V32.5C218.269,5.833,193.603,5.167,193.603,5.167z" fill="#EBEBEB"/><rect fill="#323842" height="230.5" width="133.5" x="81.186" y="31.499"/><path d="M104.852,19.832c0,1.288-1.045,2.333-2.333,2.333l0,0c-1.288,0-2.333-1.045-2.333-2.333l0,0  c0-1.288,1.045-2.333,2.333-2.333l0,0C103.807,17.499,104.852,18.544,104.852,19.832L104.852,19.832z" fill="#7B7C7C"/><path d="M172.602,19.832c0,1.288-1.044,2.333-2.333,2.333l0,0c-1.289,0-2.333-1.045-2.333-2.333l0,0  c0-1.288,1.044-2.333,2.333-2.333l0,0C171.558,17.499,172.602,18.544,172.602,19.832L172.602,19.832z" fill="#7B7C7C"/><path d="M179.477,19.832c0,1.288-1.044,2.333-2.333,2.333l0,0c-1.289,0-2.333-1.045-2.333-2.333l0,0  c0-1.288,1.044-2.333,2.333-2.333l0,0C178.433,17.499,179.477,18.544,179.477,19.832L179.477,19.832z" fill="#7B7C7C"/><path d="M195.602,20.832c0,2.047-1.659,3.708-3.708,3.708l0,0c-2.049,0-3.708-1.661-3.708-3.708l0,0  c0-2.047,1.659-3.708,3.708-3.708l0,0C193.942,17.124,195.602,18.785,195.602,20.832L195.602,20.832z" fill="#7B7C7C"/><path d="M163.019,15.374c0,0.967-0.783,1.75-1.75,1.75h-28.625c-0.966,0-1.75-0.783-1.75-1.75l0,0  c0-0.967,0.784-1.75,1.75-1.75h28.625C162.235,13.624,163.019,14.407,163.019,15.374L163.019,15.374z" fill="#7B7C7C"/><path d="M165.086,277.523c-0.551-0.774-1.259-0.921-1.396-0.942l-0.078-0.013h-31.356l-0.077,0.013  c-0.136,0.021-0.845,0.168-1.395,0.941c-0.622,0.875-0.782,2.18-0.478,3.878c0.381,2.124,1.745,4.775,6.076,5.341l0.064,0.009  h22.974l0.064-0.009c4.33-0.565,5.694-3.217,6.077-5.341C165.868,279.702,165.707,278.397,165.086,277.523z M164.579,281.224  c-0.611,3.396-3.221,4.265-5.223,4.526h-11.421h-11.422c-2.002-0.262-4.612-1.131-5.222-4.526c-0.609-3.394,1.044-3.655,1.044-3.655  h15.6h15.599C163.534,277.568,165.188,277.83,164.579,281.224z" fill="#D6D6D6"/></svg>